<svg xmlns="http://www.w3.org/2000/svg" viewBox="0 0 64 64" width="256" height="256" role="img" aria-label="Porchlight">
  <defs><radialGradient id="pl-glow" cx="32" cy="34" r="26" gradientUnits="userSpaceOnUse"><stop offset="0" stop-color="#F5B942" stop-opacity=".55"/><stop offset=".55" stop-color="#F5B942" stop-opacity=".18"/><stop offset="1" stop-color="#F5B942" stop-opacity="0"/></radialGradient><clipPath id="pl-tile"><rect width="64" height="64" rx="14"/></clipPath></defs>
  <g clip-path="url(#pl-tile)"><rect width="64" height="64" fill="#1E2A44"/><circle cx="32" cy="34" r="26" fill="url(#pl-glow)"/></g>
  <path d="M32 9.5v7" stroke="#F5B942" stroke-width="3" stroke-linecap="round"/>
  <path d="M25 16.5h14l3.2 5.5H21.8z" fill="#F5B942"/>
  <rect x="23" y="22" width="18" height="21.5" rx="4.5" fill="#F5B942"/>
  <rect x="26.2" y="24.8" width="11.6" height="16" rx="3" fill="#FFF6DE"/>
  <path d="M33.2 26.2C35.8 29.6 36.2 32.4 36.2 35.6A4.2 4.2 0 0 1 27.8 35.6C27.8 32.4 30 30.6 30.9 28.6C31.6 30.2 32.9 28.8 33.2 26.2Z" fill="#E86A17"/>
  <rect x="26" y="45" width="12" height="3.6" rx="1.8" fill="#F5B942"/>
</svg>
